<mxfile host="Electron" modified="2023-09-15T18:30:52.985Z" agent="Mozilla/5.0 (Windows NT 10.0; Win64; x64) AppleWebKit/537.36 (KHTML, like Gecko) draw.io/21.6.5 Chrome/114.0.5735.243 Electron/25.3.1 Safari/537.36" etag="urhCUak3NdBtxQiqICw4" version="21.6.5" type="device">
  <diagram id="szs79xgOVXDPXgL9OrpX" name="Página-1">
    <mxGraphModel dx="1658" dy="820" grid="1" gridSize="10" guides="1" tooltips="1" connect="1" arrows="1" fold="1" page="1" pageScale="1" pageWidth="1150" pageHeight="700" math="0" shadow="0">
      <root>
        <mxCell id="0" />
        <mxCell id="1" parent="0" />
        <mxCell id="iojK_B-qJjTEx3sVhmzu-3" value="" style="edgeStyle=orthogonalEdgeStyle;rounded=0;orthogonalLoop=1;jettySize=auto;html=1;" parent="1" source="NUaUHLJXbepJ66ujS02r-6" target="NUaUHLJXbepJ66ujS02r-8" edge="1">
          <mxGeometry relative="1" as="geometry" />
        </mxCell>
        <mxCell id="iojK_B-qJjTEx3sVhmzu-2" value="" style="edgeStyle=orthogonalEdgeStyle;rounded=0;orthogonalLoop=1;jettySize=auto;html=1;" parent="1" source="NUaUHLJXbepJ66ujS02r-4" target="NUaUHLJXbepJ66ujS02r-6" edge="1">
          <mxGeometry relative="1" as="geometry" />
        </mxCell>
        <mxCell id="iojK_B-qJjTEx3sVhmzu-1" value="" style="edgeStyle=orthogonalEdgeStyle;rounded=0;orthogonalLoop=1;jettySize=auto;html=1;" parent="1" source="NUaUHLJXbepJ66ujS02r-1" target="NUaUHLJXbepJ66ujS02r-4" edge="1">
          <mxGeometry relative="1" as="geometry" />
        </mxCell>
        <mxCell id="NUaUHLJXbepJ66ujS02r-25" value="" style="edgeStyle=orthogonalEdgeStyle;rounded=0;orthogonalLoop=1;jettySize=auto;html=1;" parent="1" source="NUaUHLJXbepJ66ujS02r-1" target="NUaUHLJXbepJ66ujS02r-24" edge="1">
          <mxGeometry relative="1" as="geometry" />
        </mxCell>
        <mxCell id="NUaUHLJXbepJ66ujS02r-23" value="" style="edgeStyle=orthogonalEdgeStyle;rounded=0;orthogonalLoop=1;jettySize=auto;html=1;" parent="1" source="NUaUHLJXbepJ66ujS02r-4" target="NUaUHLJXbepJ66ujS02r-22" edge="1">
          <mxGeometry relative="1" as="geometry" />
        </mxCell>
        <mxCell id="NUaUHLJXbepJ66ujS02r-4" value="&lt;span style=&quot;background-color: rgb(255 , 255 , 255)&quot;&gt;Responsable Centro&lt;/span&gt;" style="shape=umlActor;verticalLabelPosition=bottom;verticalAlign=top;html=1;outlineConnect=0;" parent="1" vertex="1">
          <mxGeometry x="100" y="160" width="30" height="60" as="geometry" />
        </mxCell>
        <mxCell id="NUaUHLJXbepJ66ujS02r-21" value="" style="edgeStyle=orthogonalEdgeStyle;rounded=0;orthogonalLoop=1;jettySize=auto;html=1;" parent="1" source="NUaUHLJXbepJ66ujS02r-6" target="NUaUHLJXbepJ66ujS02r-20" edge="1">
          <mxGeometry relative="1" as="geometry" />
        </mxCell>
        <mxCell id="NUaUHLJXbepJ66ujS02r-6" value="&lt;span style=&quot;background-color: rgb(255 , 255 , 255)&quot;&gt;Responsable Junta&lt;/span&gt;" style="shape=umlActor;verticalLabelPosition=bottom;verticalAlign=top;html=1;outlineConnect=0;" parent="1" vertex="1">
          <mxGeometry x="100" y="260" width="30" height="60" as="geometry" />
        </mxCell>
        <mxCell id="NUaUHLJXbepJ66ujS02r-19" value="" style="edgeStyle=orthogonalEdgeStyle;rounded=0;orthogonalLoop=1;jettySize=auto;html=1;" parent="1" source="NUaUHLJXbepJ66ujS02r-8" target="NUaUHLJXbepJ66ujS02r-18" edge="1">
          <mxGeometry relative="1" as="geometry" />
        </mxCell>
        <mxCell id="LofCq1uX1t1BlsufmOgJ-8" value="" style="edgeStyle=orthogonalEdgeStyle;rounded=0;orthogonalLoop=1;jettySize=auto;html=1;" parent="1" source="NUaUHLJXbepJ66ujS02r-8" target="LofCq1uX1t1BlsufmOgJ-3" edge="1">
          <mxGeometry relative="1" as="geometry" />
        </mxCell>
        <mxCell id="NUaUHLJXbepJ66ujS02r-8" value="&lt;span style=&quot;background-color: rgb(255 , 255 , 255)&quot;&gt;Responsable Comisión&lt;/span&gt;" style="shape=umlActor;verticalLabelPosition=bottom;verticalAlign=top;html=1;outlineConnect=0;" parent="1" vertex="1">
          <mxGeometry x="100" y="360" width="30" height="60" as="geometry" />
        </mxCell>
        <mxCell id="NUaUHLJXbepJ66ujS02r-15" value="CU-0: Diagrama de contexto" style="shape=umlFrame;whiteSpace=wrap;html=1;width=180;height=20;fontStyle=1" parent="1" vertex="1">
          <mxGeometry x="200" y="20" width="220" height="650" as="geometry" />
        </mxCell>
        <mxCell id="NUaUHLJXbepJ66ujS02r-18" value="&lt;b&gt;CU-3: &lt;br&gt;&lt;/b&gt;Administrar comisión" style="ellipse;whiteSpace=wrap;html=1;verticalAlign=top;" parent="1" vertex="1">
          <mxGeometry x="250" y="360" width="120" height="60" as="geometry" />
        </mxCell>
        <mxCell id="NUaUHLJXbepJ66ujS02r-20" value="&lt;b&gt;CU-4:&lt;br&gt;&lt;/b&gt;Administrar junta" style="ellipse;whiteSpace=wrap;html=1;verticalAlign=top;" parent="1" vertex="1">
          <mxGeometry x="250" y="260" width="120" height="60" as="geometry" />
        </mxCell>
        <mxCell id="NUaUHLJXbepJ66ujS02r-22" value="&lt;b&gt;CU-5:&lt;br&gt;&lt;/b&gt;Administrar centro" style="ellipse;whiteSpace=wrap;html=1;verticalAlign=top;" parent="1" vertex="1">
          <mxGeometry x="250" y="160" width="120" height="60" as="geometry" />
        </mxCell>
        <mxCell id="NUaUHLJXbepJ66ujS02r-24" value="&lt;b&gt;CU-6:&lt;br&gt;&lt;/b&gt;Administrar sistema" style="ellipse;whiteSpace=wrap;html=1;verticalAlign=top;" parent="1" vertex="1">
          <mxGeometry x="250" y="60" width="120" height="60" as="geometry" />
        </mxCell>
        <mxCell id="NUaUHLJXbepJ66ujS02r-1" value="&lt;span style=&quot;background-color: rgb(255 , 255 , 255)&quot;&gt;Administrador&lt;/span&gt;" style="shape=umlActor;verticalLabelPosition=bottom;verticalAlign=top;html=1;outlineConnect=0;" parent="1" vertex="1">
          <mxGeometry x="100" y="60" width="30" height="60" as="geometry" />
        </mxCell>
        <mxCell id="LofCq1uX1t1BlsufmOgJ-1" value="" style="edgeStyle=orthogonalEdgeStyle;rounded=0;orthogonalLoop=1;jettySize=auto;html=1;" parent="1" source="LofCq1uX1t1BlsufmOgJ-3" target="LofCq1uX1t1BlsufmOgJ-5" edge="1">
          <mxGeometry relative="1" as="geometry" />
        </mxCell>
        <mxCell id="LofCq1uX1t1BlsufmOgJ-2" value="" style="edgeStyle=orthogonalEdgeStyle;rounded=0;orthogonalLoop=1;jettySize=auto;html=1;" parent="1" source="LofCq1uX1t1BlsufmOgJ-3" target="LofCq1uX1t1BlsufmOgJ-7" edge="1">
          <mxGeometry relative="1" as="geometry" />
        </mxCell>
        <mxCell id="LofCq1uX1t1BlsufmOgJ-3" value="&lt;span style=&quot;background-color: rgb(255 , 255 , 255)&quot;&gt;Usuario registrado&lt;/span&gt;" style="shape=umlActor;verticalLabelPosition=bottom;verticalAlign=top;html=1;outlineConnect=0;" parent="1" vertex="1">
          <mxGeometry x="100" y="470" width="30" height="60" as="geometry" />
        </mxCell>
        <mxCell id="LofCq1uX1t1BlsufmOgJ-4" value="" style="edgeStyle=orthogonalEdgeStyle;rounded=0;orthogonalLoop=1;jettySize=auto;html=1;" parent="1" source="LofCq1uX1t1BlsufmOgJ-5" target="LofCq1uX1t1BlsufmOgJ-6" edge="1">
          <mxGeometry relative="1" as="geometry" />
        </mxCell>
        <mxCell id="LofCq1uX1t1BlsufmOgJ-5" value="&lt;span style=&quot;background-color: rgb(255 , 255 , 255)&quot;&gt;Usuario público&lt;/span&gt;" style="shape=umlActor;verticalLabelPosition=bottom;verticalAlign=top;html=1;outlineConnect=0;" parent="1" vertex="1">
          <mxGeometry x="100" y="570" width="30" height="60" as="geometry" />
        </mxCell>
        <mxCell id="LofCq1uX1t1BlsufmOgJ-6" value="&lt;b&gt;CU-1: &lt;br&gt;&lt;/b&gt;Consultar información pública" style="ellipse;whiteSpace=wrap;html=1;verticalAlign=top;" parent="1" vertex="1">
          <mxGeometry x="250" y="570" width="120" height="60" as="geometry" />
        </mxCell>
        <mxCell id="LofCq1uX1t1BlsufmOgJ-7" value="&lt;b&gt;CU-2:&lt;br&gt;&lt;/b&gt;Administrar información de usuario" style="ellipse;whiteSpace=wrap;html=1;verticalAlign=top;" parent="1" vertex="1">
          <mxGeometry x="250" y="465" width="140" height="70" as="geometry" />
        </mxCell>
      </root>
    </mxGraphModel>
  </diagram>
</mxfile>
